<svg width="64" height="64" viewBox="0 0 64 64" fill="none" xmlns="http://www.w3.org/2000/svg">
  <defs>
    <linearGradient id="gold" x1="14" y1="10" x2="51" y2="55" gradientUnits="userSpaceOnUse">
      <stop stop-color="#F4D49A" />
      <stop offset="0.5" stop-color="#C79A53" />
      <stop offset="1" stop-color="#8F632A" />
    </linearGradient>
    <linearGradient id="ink" x1="28" y1="8" x2="39" y2="33" gradientUnits="userSpaceOnUse">
      <stop stop-color="#FFF7E2" />
      <stop offset="1" stop-color="#D4B37C" />
    </linearGradient>
  </defs>

  <rect width="64" height="64" rx="10" fill="#080707" />
  <rect x="2" y="2" width="60" height="60" rx="8" stroke="#2D2015" />

  <circle cx="51" cy="12" r="5.5" fill="#9D201B" />
  <path d="M49 9.3V14.7M53 9.3V14.7M47.6 12H54.4" stroke="#D8B47A" stroke-width="1.1" stroke-linecap="round" opacity="0.8" />

  <path d="M17 50V24.5C17 19.8 20.8 16 25.5 16H31.2" stroke="url(#gold)" stroke-width="3.4" stroke-linecap="round" />
  <path d="M43 50V24.5C43 19.8 39.2 16 34.5 16H28.8" stroke="url(#gold)" stroke-width="3.4" stroke-linecap="round" />
  <path d="M22.5 50V28.5H37.5V50" stroke="url(#gold)" stroke-width="2.6" stroke-linecap="round" />
  <path d="M25.8 33.5V50M30 31.5V50M34.2 33.5V50" stroke="#DDB67A" stroke-width="1.5" stroke-linecap="round" opacity="0.9" />

  <path d="M14.5 50H49.5" stroke="#7B5425" stroke-width="2" stroke-linecap="round" />
  <path d="M13 54H51" stroke="#5D3D1A" stroke-width="1.4" stroke-linecap="round" opacity="0.8" />

  <path d="M29 10C31.5 13 32.2 16.3 31 20.6C30.1 23.9 28.8 27.4 28.6 30.2" stroke="url(#ink)" stroke-width="3.6" stroke-linecap="round" />
  <path d="M35.8 15C39.5 17.6 41.1 20.3 40.5 23.2C40 25.8 38.7 28 36.4 30.8" stroke="url(#ink)" stroke-width="3.1" stroke-linecap="round" />
  <path d="M24.5 22.5C28.5 21 33.1 21.2 38.8 23.2" stroke="#E6C892" stroke-width="2.3" stroke-linecap="round" opacity="0.85" />
</svg>
